# xmcd
#
# Track frame offsets:
#	150
#	13725
#	27360
#	37207
#	53820
#	70242
#	84445
#	104190
#	119640
#	137020
#	148345
#	164937
#
# Disc length: 2403 seconds
#
# Revision: 0
# Processed by: cddbd v1.5.2PL0 Copyright (c) Steve Scherf et al.
# Submitted via: dBpowerAMP V4.0
#
DISCID=bf09610c
DTITLE=Skip James - Skip's Piano Blues
DYEAR=1964
DGENRE=Blues
TTITLE0=All Night Long
TTITLE1=Rock Island Blues
TTITLE2=Little Boy, How Old Are You
TTITLE3=Four O'Clock Blues
TTITLE4=Black Gal
TTITLE5=Little Cow And Calf
TTITLE6=How Long Blues
TTITLE7=Vicksburg Blues
TTITLE8=Lazy Bones
TTITLE9=Walking The Sea
TTITLE10=22-20 Blues
TTITLE11=Special Rider Blues
EXTD=
EXTT0=
EXTT1=
EXTT2=
EXTT3=
EXTT4=
EXTT5=
EXTT6=
EXTT7=
EXTT8=
EXTT9=
EXTT10=
EXTT11=
PLAYORDER=
